<svg id="Layer_1" data-name="Layer 1" xmlns="http://www.w3.org/2000/svg" viewBox="0 0 138.93 107.98">
    <defs>
        <style>
            .cls-1{fill:#ff0;}.cls-2{fill:#f0f;}.cls-3{fill:red;}.cls-4{fill:aqua;}.cls-5{fill:lime;}.cls-6{fill:blue;}
        </style>
    </defs>
    <title>fast-csv.skewed</title>
    <path class="cls-1"
          d="M59.57,66c-1,.55-2.18,1.09-3.43,1.62l.92,1.72a21.71,21.71,0,0,0,1.55-1.85C59,67,59.26,66.53,59.57,66Z"
          transform="translate(0 0)"/>
    <path class="cls-1" d="M56.14,53.76h7c.12-1.38.2-2.8.2-4.3v-20l-7.19.32Z" transform="translate(0 0)"/>
    <polygon class="cls-1" points="138.93 0 119.47 1.73 119.47 106.26 138.93 107.98 138.93 0"/>
    <polygon class="cls-2" points="36.67 29.81 36.67 53.76 38.93 53.76 38.93 29.7 36.67 29.81"/>
    <path class="cls-2" d="M102.26,49.46V28.62l-2.26.1V63A36,36,0,0,0,102.26,49.46Z" transform="translate(0 0)"/>
    <path class="cls-2" d="M36.67,67.64l2.26,4.2V66.6C38.22,67,37.47,67.3,36.67,67.64Z" transform="translate(0 0)"/>
    <polygon class="cls-2" points="100 106.26 119.47 107.98 119.47 106.26 100 104.55 100 106.26"/>
    <polygon class="cls-2" points="119.47 1.73 119.47 0 100 1.73 100 3.45 119.47 1.73"/>
    <path class="cls-3"
          d="M57.06,69.36l-.92-1.72c1.25-.53,2.39-1.07,3.43-1.62a28.7,28.7,0,0,0,3.56-12.26h-7V29.81l7.19-.32v-.87l-24.4,1.09v24H49.42a13.08,13.08,0,0,1-3,7.63Q44.23,64,38.93,66.6v5.24l3.56,6.61C49,75.91,53.82,72.86,57.06,69.36Z"
          transform="translate(0 0)"/>
    <path class="cls-3" d="M100,3.45V28.72l2.26-.1V49.46A36,36,0,0,1,100,63v41.59l19.47,1.72V1.72Z"
          transform="translate(0 0)"/>
    <path class="cls-4" d="M75.61,53.76h7c.13-1.38.2-2.8.2-4.3v-20l-7.18.32Z" transform="translate(0 0)"/>
    <path class="cls-4" d="M76.53,69.36a23.74,23.74,0,0,0,1.55-1.85c.34-.48.65-1,1-1.49-1.05.55-2.19,1.09-3.43,1.62Z"
          transform="translate(0 0)"/>
    <polygon class="cls-4"
             points="19.47 8.86 100 1.73 100 0 0 8.86 0 99.16 100 107.98 100 106.26 19.47 99.16 19.47 8.86"/>
    <path class="cls-5"
          d="M63.13,53.76h5.75a13,13,0,0,1-3,7.63A20.76,20.76,0,0,1,59.57,66c-.31.51-.62,1-1,1.49a21.71,21.71,0,0,1-1.55,1.85L62,78.45c6.48-2.54,11.33-5.59,14.57-9.09l-.92-1.72C76.85,67.11,78,66.57,79,66a28.56,28.56,0,0,0,3.55-12.26h-7V29.81l7.18-.32v-.87l-19.46.87v20C63.33,51,63.25,52.38,63.13,53.76Z"
          transform="translate(0 0)"/>
    <path class="cls-6"
          d="M38.93,99.16V71.84l-2.26-4.2c.8-.34,1.55-.69,2.26-1V53.76H36.67V29.81l2.26-.1V8.86L100,3.45V1.72L19.47,8.86v90.3l80.53,7.1v-1.72Z"
          transform="translate(0 0)"/>
    <path class="cls-6"
          d="M82.79,49.46c0,1.5-.07,2.92-.2,4.3h5.76a13,13,0,0,1-3,7.63A20.76,20.76,0,0,1,79,66c-.31.51-.62,1-1,1.49a23.74,23.74,0,0,1-1.55,1.85l4.9,9.09Q92.83,74,97.54,67.51A21.38,21.38,0,0,0,100,63V28.72l-17.21.77Z"
          transform="translate(0 0)"/>
    <path d="M81.43,78.45l-4.9-9.09c-3.24,3.5-8.09,6.55-14.57,9.09l-4.9-9.09c-3.24,3.5-8.08,6.55-14.57,9.09l-3.56-6.61V99.16L100,104.54V63a21.38,21.38,0,0,1-2.46,4.56Q92.83,74,81.43,78.45Z"
          transform="translate(0 0)"/>
    <path d="M65.91,61.39a13,13,0,0,0,3-7.63H63.13A28.7,28.7,0,0,1,59.57,66,20.76,20.76,0,0,0,65.91,61.39Z"
          transform="translate(0 0)"/>
    <polygon
            points="38.93 29.7 63.33 28.62 63.33 29.49 82.79 28.62 82.79 29.49 100 28.72 100 3.45 38.93 8.86 38.93 29.7"/>
    <path d="M46.45,61.39a13.08,13.08,0,0,0,3-7.63H38.93V66.6Q44.23,64.05,46.45,61.39Z" transform="translate(0 0)"/>
    <path d="M85.38,61.39a13,13,0,0,0,3-7.63H82.59A28.56,28.56,0,0,1,79,66,20.76,20.76,0,0,0,85.38,61.39Z"
          transform="translate(0 0)"/>
</svg>
